<svg xmlns="http://www.w3.org/2000/svg" fill="none" viewBox="0 0 24 24" id="Business-User-Curriculum--Streamline-Outlined-Expansion-Set.svg" height="24" width="24"><desc>Business User Curriculum Streamline Icon: https://streamlinehq.com</desc><g id="business-user-curriculum"><path id="Union" fill="#fff" fill-rule="evenodd" d="M4.944 23.76C4.2972 23.76 3.7435 23.5297 3.2829 23.0691C2.8223 22.6085 2.592 22.0548 2.592 21.408V2.592C2.592 1.9452 2.8223 1.3915 3.2829 0.9309C3.7435 0.4703 4.2972 0.24 4.944 0.24H14.352L21.408 7.296V21.408C21.408 22.0548 21.1777 22.6085 20.7171 23.0691C20.2565 23.5297 19.7028 23.76 19.056 23.76H4.944ZM13.176 2.592H4.944V21.408H19.056V8.472L13.176 2.592ZM9.8773 8.3191C10.2538 8.6957 10.7148 8.8839 11.2601 8.8839S12.2664 8.6957 12.6428 8.3191C13.0194 7.9426 13.2076 7.4817 13.2076 6.9364C13.2076 6.391 13.0194 5.9301 12.6428 5.5536C12.2664 5.1771 11.8054 4.9888 11.2601 4.9888S10.2538 5.1771 9.8773 5.5536C9.5008 5.9301 9.3125 6.391 9.3125 6.9364C9.3125 7.4817 9.5008 7.9426 9.8773 8.3191ZM7.3649 11.6885V12.0001H15.1552V11.6885C15.1552 11.3768 15.0741 11.088 14.9118 10.8218C14.7495 10.5556 14.519 10.3641 14.2204 10.2473C13.753 10.0525 13.2693 9.9064 12.7695 9.809C12.2695 9.7116 11.7665 9.6629 11.2601 9.6629C10.7537 9.6629 10.2506 9.7116 9.7507 9.809C9.2508 9.9064 8.7672 10.0525 8.2997 10.2473C8.0011 10.3641 7.7707 10.5556 7.6084 10.8218C7.4461 11.088 7.3649 11.3768 7.3649 11.6885ZM16.704 15.234H7.296V13.47H16.704V15.234ZM7.296 18.762H16.704V16.998H7.296V18.762Z" clip-rule="evenodd" stroke-width="1"></path></g></svg>