<svg role="img" viewBox="0 0 24 24" xmlns="http://www.w3.org/2000/svg" id="Wellfound--Streamline-Simple-Icons.svg" height="24" width="24"><desc>Wellfound Streamline Icon: https://streamlinehq.com</desc><title>Wellfound</title><path d="M23.998 8.128c0.063 -1.379 -1.612 -2.376 -2.795 -1.664 -1.23 0.598 -1.322 2.52 -0.156 3.234 1.2 0.862 2.995 -0.09 2.951 -1.57zm0 7.748c0.063 -1.38 -1.612 -2.377 -2.795 -1.665 -1.23 0.598 -1.322 2.52 -0.156 3.234 1.2 0.863 2.995 -0.09 2.951 -1.57zm-20.5 1.762L0 6.364h3.257l2.066 8.106 2.245 -8.106h3.267l2.244 8.106 2.065 -8.106h3.257l-3.54 11.274H11.39c-0.73 -2.713 -1.46 -5.426 -2.188 -8.14l-2.233 8.14H3.5z" fill="#fff" stroke-width="1"></path></svg>